<?xml version="1.0" encoding="utf-8"?>
<!-- Generator: Adobe Illustrator 24.1.2, SVG Export Plug-In . SVG Version: 6.00 Build 0)  -->
<svg version="1.1" xmlns="http://www.w3.org/2000/svg" xmlns:xlink="http://www.w3.org/1999/xlink" x="0px" y="0px"
	 viewBox="0 0 1199 518" style="enable-background:new 0 0 1199 518;" xml:space="preserve">
<style type="text/css">
	.st0{opacity:0.52;fill:#FFFFFF;}
	.st1{opacity:0.86;fill:#041C44;}
	.st2{fill:#4353A3;}
</style>
<g id="Layer_3">
</g>
<g id="Layer_2">
</g>
<g id="Layer_1">
	<g>
		<path class="st0" d="M242.12,426.93c-55.33,11.85-99.12,13.8-133.33,10.67c-15.97,6.82-31.43,14.63-45.44,22.36
			c24.05,6.91,55.83,14.64,96.66,22.03c82.47,14.93,141,0,214-23c25.25-7.96,73-23,89.28-26.79c22.19-5.16,43.35-9.94,63.55-14.35
			c-23.16-8.53-48.68-15.83-78.14-19.36C389.14,422.08,316.93,442.98,242.12,426.93z"/>
		<path class="st0" d="M1199,298h-1v9v0.5h0.5v130.78v43.22c0,0-22.88-22.5-62.22-43.71c-23.1,3.67-53.99,11.01-94.78,24.71
			c-12.73,4.28-26.33,7.88-40.6,10.79C1085.63,509.41,1199,510,1199,510V298z"/>
		<path class="st0" d="M1135.78,177.71C1175.12,156.5,1198,134,1198,134V95c0,0-128.53,0.67-214.16,44.19
			c20.37,3.27,39.58,7.91,57.16,13.81C1081.79,166.71,1112.68,174.04,1135.78,177.71z"/>
		<path class="st0" d="M241.62,188.57c74.82-16.05,147.02,4.86,206.57,28.43c36.92-4.43,67.66-14.78,95.32-26.05
			c-25.44-5.43-52.47-11.48-81.23-18.17C446,169,398.25,153.96,373,146c-73-23-131.53-37.93-214-23
			c-47.91,8.67-83.36,17.81-108.48,25.55c16.99,9.88,36.95,20.46,57.76,29.35C142.49,174.77,186.28,176.71,241.62,188.57z"/>
		<path class="st1" d="M0,116v51.71c0,0,14.82-8.17,50.52-19.17C20.68,131.19,0,116,0,116z"/>
		<path class="st1" d="M906.1,199.45c10.84-6.81,20.37-14.95,28.9-24.45c12.91-14.36,29.82-26.14,48.84-35.81
			c-70.67-11.34-155.28-6.19-233.99,19.68c18.89,3.78,42.61,9.36,71.88,17.59C848.19,183.89,876.92,190.37,906.1,199.45z"/>
		<path class="st0" d="M935,175c-8.54,9.5-18.06,17.64-28.9,24.45c1.63,0.51,3.27,1.02,4.9,1.55
			c93.55,30.05,173.27,4.49,224.78-23.29c-23.1-3.67-53.99-11.01-94.78-24.71c-17.58-5.91-36.79-10.54-57.16-13.81
			C964.82,148.86,947.91,160.64,935,175z"/>
		<path class="st1" d="M935,175c-8.54,9.5-18.06,17.64-28.9,24.45c1.63,0.51,3.27,1.02,4.9,1.55
			c93.55,30.05,173.27,4.49,224.78-23.29c-23.1-3.67-53.99-11.01-94.78-24.71c-17.58-5.91-36.79-10.54-57.16-13.81
			C964.82,148.86,947.91,160.64,935,175z"/>
		<path class="st0" d="M108.28,177.89c-20.81-8.88-40.77-19.46-57.76-29.35C14.82,159.54,0,167.71,0,167.71V221
			C0,221,27.38,185.28,108.28,177.89z"/>
		<path class="st1" d="M108.28,177.89c-20.81-8.88-40.77-19.46-57.76-29.35C14.82,159.54,0,167.71,0,167.71V221
			C0,221,27.38,185.28,108.28,177.89z"/>
		<path class="st0" d="M241.62,188.57C257.15,191.89,273.6,196,291,201c63.82,18.33,114.62,21.1,157.19,16
			C388.64,193.42,316.43,172.52,241.62,188.57z"/>
		<path class="st1" d="M241.62,188.57C257.15,191.89,273.6,196,291,201c63.82,18.33,114.62,21.1,157.19,16
			C388.64,193.42,316.43,172.52,241.62,188.57z"/>
		<path class="st2" d="M749.85,158.87C705.67,150.02,688,151,688,151c-51.19-5.73-92.4,18.73-144.49,39.95
			c36.51,7.79,69.73,14.28,100.02,19.46C676.2,188.22,712.35,171.2,749.85,158.87z"/>
		<path class="st2" d="M589,256c16.61-17.12,34.95-32.28,54.53-45.58c-30.29-5.18-63.51-11.67-100.02-19.46
			c-27.66,11.27-58.4,21.62-95.32,26.05C517.67,244.51,569.92,275.66,589,256z"/>
		<path class="st2" d="M108.28,177.89c38.09,16.26,79.02,26.83,109.79,16.95c7.87-2.53,15.72-4.6,23.55-6.28
			C186.28,176.71,142.49,174.77,108.28,177.89z"/>
		<path class="st2" d="M1198,177.22V134c0,0-22.88,22.5-62.22,43.71C1183.47,185.29,1198,177.22,1198,177.22z"/>
		<path class="st2" d="M906.1,199.45c-29.17-9.08-57.9-15.56-84.37-23c-29.27-8.22-52.99-13.8-71.88-17.59
			c-37.49,12.33-73.65,29.35-106.32,51.55C779.8,233.73,856.67,230.49,906.1,199.45z"/>
		<polygon class="st2" points="1,307.5 1,307 0,307 0,308 0.5,308 0.5,307.5 		"/>
		<rect x="1" y="307" class="st2" width="1197" height="0.5"/>
		<path class="st2" d="M1,298h1197V177.22c0,0-14.53,8.06-62.22,0.49C1084.27,205.49,1004.55,231.05,911,201
			c-1.64-0.53-3.27-1.04-4.9-1.55c-49.42,31.04-126.3,34.27-262.56,10.97C623.95,223.72,605.61,238.88,589,256
			c-19.08,19.66-71.33-11.49-140.81-39c-42.57,5.1-93.37,2.33-157.19-16c-17.4-5-33.85-9.11-49.38-12.43
			c-7.82,1.68-15.68,3.76-23.55,6.28c-30.77,9.87-71.7-0.7-109.79-16.95C27.38,185.28,0,221,0,221v86h1V298z"/>
		<rect x="1" y="298" class="st2" width="1197" height="9"/>
		<path class="st1" d="M936,430c-5.73-6.38-11.91-12.15-18.63-17.31c-1.95,0.58-3.9,1.18-5.87,1.81
			c-30.85,9.91-61.33,16.69-89.28,24.54c-29.27,8.22-52.99,13.8-71.88,17.59c84.97,27.93,176.8,31.7,250.56,16.66
			C975.37,462.4,952.44,448.29,936,430z"/>
		<path class="st1" d="M1,395.11c-0.34-0.39-0.5-0.61-0.5-0.61v105c0,0,26.52-19.48,62.84-39.53C19.07,447.24,1,437.29,1,437.29
			V395.11z"/>
		<path class="st0" d="M291.5,414.5c-17.4,5-33.85,9.11-49.38,12.43c74.82,16.05,147.02-4.86,206.57-28.43
			C406.12,393.4,355.32,396.17,291.5,414.5z"/>
		<path class="st1" d="M291.5,414.5c-17.4,5-33.85,9.11-49.38,12.43c74.82,16.05,147.02-4.86,206.57-28.43
			C406.12,393.4,355.32,396.17,291.5,414.5z"/>
		<path class="st0" d="M1,395.11v42.18c0,0,18.07,9.96,62.34,22.68c14.01-7.73,29.47-15.54,45.44-22.36
			C34.1,430.79,5.03,399.83,1,395.11z"/>
		<path class="st1" d="M1,395.11v42.18c0,0,18.07,9.96,62.34,22.68c14.01-7.73,29.47-15.54,45.44-22.36
			C34.1,430.79,5.03,399.83,1,395.11z"/>
		<path class="st0" d="M1136.28,437.79c-50.43-27.19-127.9-52.25-218.91-25.1c6.72,5.16,12.9,10.93,18.63,17.31
			c16.44,18.29,39.37,32.4,64.9,43.29c14.27-2.91,27.87-6.51,40.6-10.79C1082.29,448.79,1113.18,441.46,1136.28,437.79z"/>
		<path class="st1" d="M1136.28,437.79c-50.43-27.19-127.9-52.25-218.91-25.1c6.72,5.16,12.9,10.93,18.63,17.31
			c16.44,18.29,39.37,32.4,64.9,43.29c14.27-2.91,27.87-6.51,40.6-10.79C1082.29,448.79,1113.18,441.46,1136.28,437.79z"/>
		<path class="st2" d="M526.83,417.86c60.54,22.3,104.99,52.99,161.67,46.64c0,0,17.67,0.98,61.85-7.87
			c-42.07-13.83-82.45-33.58-118.11-59.9C600.36,402.4,565.35,409.45,526.83,417.86z"/>
		<path class="st2" d="M108.78,437.61c34.21,3.13,78,1.18,133.33-10.67c-7.82-1.68-15.68-3.76-23.55-6.28
			C187.8,410.78,146.87,421.35,108.78,437.61z"/>
		<path class="st2" d="M1136.28,437.79c39.34,21.21,62.22,43.71,62.22,43.71v-43.22C1198.5,438.28,1183.97,430.21,1136.28,437.79z"
			/>
		<path class="st2" d="M589.5,359.5c-19.08-19.66-71.33,11.49-140.81,39c29.46,3.53,54.98,10.83,78.14,19.36
			c38.52-8.41,73.54-15.46,105.41-21.14C617.06,385.52,602.73,373.14,589.5,359.5z"/>
		<path class="st2" d="M911.5,414.5c1.96-0.63,3.92-1.23,5.87-1.81c-50.27-38.62-131.08-43.38-285.13-15.96
			c35.66,26.33,76.04,46.07,118.11,59.9c18.89-3.78,42.61-9.36,71.88-17.59C850.17,431.19,880.65,424.41,911.5,414.5z"/>
		<path class="st2" d="M1,308H0.5v86.5c0,0,0.16,0.21,0.5,0.61V308z"/>
		<path class="st2" d="M1,308v87.11c4.03,4.72,33.1,35.68,107.78,42.5c38.09-16.26,79.02-26.83,109.79-16.95
			c7.87,2.53,15.72,4.6,23.55,6.28c15.54-3.33,31.98-7.44,49.38-12.43c63.82-18.33,114.62-21.1,157.19-16
			c69.48-27.51,121.73-58.66,140.81-39c13.23,13.64,27.56,26.02,42.74,37.23c154.05-27.42,234.86-22.65,285.13,15.96
			c91.01-27.16,168.49-2.09,218.91,25.1c47.69-7.57,62.22,0.49,62.22,0.49V307.5h-0.5v0.5H1z"/>
		<rect x="0.5" y="307.5" class="st2" width="0.5" height="0.5"/>
		<rect x="1" y="307.5" class="st2" width="1197" height="0.5"/>
	</g>
	<g>
		<path class="st0" d="M-4,965.29"/>
		<path class="st1" d="M-4,1017"/>
	</g>
</g>
</svg>
