<?xml version="1.0" encoding="UTF-8" standalone="no"?>
<svg
   xmlns:dc="http://purl.org/dc/elements/1.1/"
   xmlns:cc="http://creativecommons.org/ns#"
   xmlns:rdf="http://www.w3.org/1999/02/22-rdf-syntax-ns#"
   xmlns:svg="http://www.w3.org/2000/svg"
   xmlns="http://www.w3.org/2000/svg"
   xmlns:sodipodi="http://sodipodi.sourceforge.net/DTD/sodipodi-0.dtd"
   xmlns:inkscape="http://www.inkscape.org/namespaces/inkscape"
   inkscape:version="1.0 (4035a4fb49, 2020-05-01)"
   sodipodi:docname="waveBottomWhite.svg"
   id="svg40"
   xml:space="preserve"
   style="enable-background:new 0 0 1199 292;"
   viewBox="0 0 1199 292"
   y="0px"
   x="0px"
   version="1.1"><metadata
   id="metadata46"><rdf:RDF><cc:Work
       rdf:about=""><dc:format>image/svg+xml</dc:format><dc:type
         rdf:resource="http://purl.org/dc/dcmitype/StillImage" /><dc:title></dc:title></cc:Work></rdf:RDF></metadata><defs
   id="defs44" /><sodipodi:namedview
   inkscape:current-layer="svg40"
   inkscape:window-maximized="1"
   inkscape:window-y="2"
   inkscape:window-x="-8"
   inkscape:cy="13.175042"
   inkscape:cx="655.91332"
   inkscape:zoom="1.2679563"
   showgrid="false"
   id="namedview42"
   inkscape:window-height="1017"
   inkscape:window-width="1920"
   inkscape:pageshadow="2"
   inkscape:pageopacity="0"
   guidetolerance="10"
   gridtolerance="10"
   objecttolerance="10"
   borderopacity="1"
   bordercolor="#666666"
   pagecolor="#ffffff" />
<style
   id="style29"
   type="text/css">
	.st0{opacity:0.57;fill:#4353A3;}
	.st1{opacity:0.61;fill:#041C44;}
	.st2{fill:#4353A3;}
</style>
<rect
   y="81.420464"
   x="-11.054335"
   height="242.53912"
   width="1228.7118"
   id="rect94"
   style="fill:#ffffff;fill-opacity:1;stroke-width:1.07484" /><g
   transform="matrix(-1.001862,0,0,-1.0071331,1201.2316,292.99775)"
   id="Layer_3">
	<path
   style="stroke-width:1.00282"
   id="path31"
   d="m -1.5473702,151.21 c 0,0 43.2430182,-23.71 159.8986002,-44.71 82.93609,-14.93 141.79688,0 215.20944,23 25.39271,7.96 73.41257,23 89.78457,26.79 298.02485,68.9 412.91049,71.34 475.39163,2.21 71.40133,-79 264.48633,-80 264.48633,-80 v 212 H -1.5473702 Z"
   class="st0" />
</g>
<g
   transform="matrix(-1.003724,0,0,-1.001872,1203.4633,314.62593)"
   id="Layer_2">
	<path
   id="path34"
   d="m 0.5,99.5 c 0,0 140.97,103.59 218.07,78.85 170.93,-54.85 333.79,99.42 370.93,61.15 119.28,-122.9 327,-145 452,-103 125,42 157,24.22 157,24.22 V 291.5 H 0.5 Z"
   class="st1" />
</g>
<g
   transform="matrix(-1.0080596,0,0,-1.2500346,1203.1387,361.81872)"
   style="fill:#4353a3;fill-opacity:1"
   id="Layer_1">
	<path
   style="fill:#4353a3;fill-opacity:1"
   id="path37"
   d="m 0.5,204.5 c 0,0 65.08,-84.89 291,-20 223.41,64.17 287.28,-62.29 397,-50 0,0 36,-2 133.72,25.46 27.95,7.85 58.43,14.63 89.28,24.54 165,53 287,-67 287,-67 v 174 H 0.5 Z"
   class="st2" />
</g>
</svg>
