<?xml version="1.0" encoding="utf-8"?>
<!-- Generator: Adobe Illustrator 24.1.2, SVG Export Plug-In . SVG Version: 6.00 Build 0)  -->
<svg version="1.1" xmlns="http://www.w3.org/2000/svg" xmlns:xlink="http://www.w3.org/1999/xlink" x="0px" y="0px"
	 viewBox="0 0 1199 292" style="enable-background:new 0 0 1199 292;" xml:space="preserve">
<style type="text/css">
	.st0{opacity:0.75;fill:#4353A3;}
	.st1{opacity:0.61;fill:#041C44;}
	.st2{fill:#4353A3;}
</style>
<g id="Layer_3">
	<path class="st0" d="M0.5,151.21c0,0,43-23.71,159-44.71c82.47-14.93,141,0,214,23c25.25,7.96,73,23,89.28,26.79
		c296.35,68.9,410.59,71.34,472.72,2.21c71-79,263-80,263-80v212H0.5V151.21z"/>
</g>
<g id="Layer_2">
	<path class="st1" d="M0.5,99.5c0,0,140.97,103.59,218.07,78.85C389.5,123.5,552.36,277.77,589.5,239.5
		c119.28-122.9,327-145,452-103s157,24.22,157,24.22V291.5H0.5V99.5z"/>
</g>
<g id="Layer_1">
	<path class="st2" d="M0.5,204.5c0,0,65.08-84.89,291-20c223.41,64.17,287.28-62.29,397-50c0,0,36-2,133.72,25.46
		c27.95,7.85,58.43,14.63,89.28,24.54c165,53,287-67,287-67v174H0.5V204.5z"/>
</g>
</svg>
